<svg width="120" height="28" viewBox="0 0 120 28" fill="none" xmlns="http://www.w3.org/2000/svg">
<path d="M20.9881 5H18.2711C16.6587 5 14.8653 5.67811 14.8653 8.01522C14.8732 8.82956 14.8653 9.60945 14.8653 10.4872H13V13.4553H14.923V22H18.4567V13.3989H20.789L21 10.4788H18.3958C18.3958 10.4788 18.4016 9.17988 18.3958 8.80265C18.3958 7.87908 19.3568 7.93197 19.4146 7.93197C19.8719 7.93197 20.7612 7.9333 20.9894 7.93197V5H20.9881Z" fill="#A6A6A6"/>
<path d="M38.2559 21V11.8301H36.5859V10.4336H38.2559V9.34961C38.2559 8.2168 38.5586 7.34115 39.1641 6.72266C39.7695 6.10417 40.6257 5.79492 41.7324 5.79492C42.1491 5.79492 42.5625 5.85026 42.9727 5.96094L42.875 7.42578C42.569 7.36719 42.2435 7.33789 41.8984 7.33789C41.3125 7.33789 40.86 7.51042 40.541 7.85547C40.222 8.19401 40.0625 8.68229 40.0625 9.32031V10.4336H42.3184V11.8301H40.0625V21H38.2559ZM50.8438 21C50.7396 20.7917 50.6549 20.4206 50.5898 19.8867C49.75 20.7591 48.7474 21.1953 47.582 21.1953C46.5404 21.1953 45.6842 20.9023 45.0137 20.3164C44.3496 19.724 44.0176 18.9753 44.0176 18.0703C44.0176 16.9701 44.4342 16.1172 45.2676 15.5117C46.1074 14.8997 47.2858 14.5938 48.8027 14.5938H50.5605V13.7637C50.5605 13.1322 50.3717 12.6309 49.9941 12.2598C49.6165 11.8822 49.0599 11.6934 48.3242 11.6934C47.6797 11.6934 47.1393 11.8561 46.7031 12.1816C46.2669 12.5072 46.0488 12.901 46.0488 13.3633H44.2324C44.2324 12.8359 44.418 12.3281 44.7891 11.8398C45.1667 11.3451 45.6745 10.9544 46.3125 10.668C46.957 10.3815 47.6634 10.2383 48.4316 10.2383C49.6491 10.2383 50.6029 10.5443 51.293 11.1562C51.9831 11.7617 52.3411 12.5983 52.3672 13.666V18.5293C52.3672 19.4993 52.4909 20.2708 52.7383 20.8438V21H50.8438ZM47.8457 19.623C48.4121 19.623 48.9492 19.4766 49.457 19.1836C49.9648 18.8906 50.3327 18.5098 50.5605 18.041V15.873H49.1445C46.931 15.873 45.8242 16.5208 45.8242 17.8164C45.8242 18.3828 46.013 18.8255 46.3906 19.1445C46.7682 19.4635 47.2533 19.623 47.8457 19.623ZM59.4375 19.7207C60.082 19.7207 60.6452 19.5254 61.127 19.1348C61.6087 18.7441 61.8757 18.2559 61.9277 17.6699H63.6367C63.6042 18.2754 63.3958 18.8516 63.0117 19.3984C62.6276 19.9453 62.1133 20.3815 61.4688 20.707C60.8307 21.0326 60.1536 21.1953 59.4375 21.1953C57.9987 21.1953 56.8529 20.7168 56 19.7598C55.1536 18.7962 54.7305 17.4811 54.7305 15.8145V15.5117C54.7305 14.4831 54.9193 13.5684 55.2969 12.7676C55.6745 11.9668 56.2148 11.3451 56.918 10.9023C57.6276 10.4596 58.4642 10.2383 59.4277 10.2383C60.6126 10.2383 61.5957 10.5931 62.377 11.3027C63.1647 12.0124 63.5846 12.9336 63.6367 14.0664H61.9277C61.8757 13.3828 61.6152 12.8229 61.1465 12.3867C60.6842 11.944 60.1113 11.7227 59.4277 11.7227C58.5098 11.7227 57.7969 12.0547 57.2891 12.7188C56.7878 13.3763 56.5371 14.3301 56.5371 15.5801V15.9219C56.5371 17.1393 56.7878 18.0768 57.2891 18.7344C57.7904 19.3919 58.5065 19.7207 59.4375 19.7207ZM70.0527 21.1953C68.6204 21.1953 67.4551 20.7266 66.5566 19.7891C65.6582 18.8451 65.209 17.5853 65.209 16.0098V15.6777C65.209 14.6296 65.4076 13.6953 65.8047 12.875C66.2083 12.0482 66.7682 11.4036 67.4844 10.9414C68.207 10.4727 68.9883 10.2383 69.8281 10.2383C71.2018 10.2383 72.2695 10.6908 73.0312 11.5957C73.793 12.5007 74.1738 13.7962 74.1738 15.4824V16.2344H67.0156C67.0417 17.276 67.3444 18.1191 67.9238 18.7637C68.5098 19.4017 69.252 19.7207 70.1504 19.7207C70.7884 19.7207 71.3288 19.5905 71.7715 19.3301C72.2142 19.0697 72.6016 18.7246 72.9336 18.2949L74.0371 19.1543C73.1517 20.515 71.8236 21.1953 70.0527 21.1953ZM69.8281 11.7227C69.099 11.7227 68.487 11.9896 67.9922 12.5234C67.4974 13.0508 67.1914 13.793 67.0742 14.75H72.3672V14.6133C72.3151 13.6953 72.0677 12.9857 71.625 12.4844C71.1823 11.9766 70.5833 11.7227 69.8281 11.7227ZM85.2188 15.834C85.2188 17.4486 84.8477 18.7474 84.1055 19.7305C83.3633 20.707 82.3672 21.1953 81.1172 21.1953C79.7826 21.1953 78.7507 20.7233 78.0215 19.7793L77.9336 21H76.2734V6H78.0801V11.5957C78.8092 10.6908 79.8151 10.2383 81.0977 10.2383C82.3802 10.2383 83.3861 10.7233 84.1152 11.6934C84.8509 12.6634 85.2188 13.9915 85.2188 15.6777V15.834ZM83.4121 15.6289C83.4121 14.3984 83.1745 13.4479 82.6992 12.7773C82.224 12.1068 81.5404 11.7715 80.6484 11.7715C79.457 11.7715 78.6009 12.3249 78.0801 13.4316V18.002C78.6335 19.1087 79.4961 19.6621 80.668 19.6621C81.5339 19.6621 82.2077 19.3268 82.6895 18.6562C83.1712 17.9857 83.4121 16.9766 83.4121 15.6289ZM87.0254 15.6191C87.0254 14.584 87.2272 13.653 87.6309 12.8262C88.041 11.9993 88.6074 11.3613 89.3301 10.9121C90.0592 10.4629 90.8893 10.2383 91.8203 10.2383C93.2591 10.2383 94.4212 10.7363 95.3066 11.7324C96.1986 12.7285 96.6445 14.0534 96.6445 15.707V15.834C96.6445 16.8626 96.446 17.7871 96.0488 18.6074C95.6582 19.4212 95.0951 20.056 94.3594 20.5117C93.6302 20.9674 92.7904 21.1953 91.8398 21.1953C90.4076 21.1953 89.2454 20.6973 88.3535 19.7012C87.4681 18.7051 87.0254 17.3867 87.0254 15.7461V15.6191ZM88.8418 15.834C88.8418 17.0059 89.112 17.9466 89.6523 18.6562C90.1992 19.3659 90.9284 19.7207 91.8398 19.7207C92.7578 19.7207 93.487 19.3626 94.0273 18.6465C94.5677 17.9238 94.8379 16.9147 94.8379 15.6191C94.8379 14.4603 94.5612 13.5228 94.0078 12.8066C93.4609 12.084 92.7318 11.7227 91.8203 11.7227C90.9284 11.7227 90.209 12.0775 89.6621 12.7871C89.1152 13.4967 88.8418 14.5124 88.8418 15.834ZM98.4316 15.6191C98.4316 14.584 98.6335 13.653 99.0371 12.8262C99.4473 11.9993 100.014 11.3613 100.736 10.9121C101.465 10.4629 102.296 10.2383 103.227 10.2383C104.665 10.2383 105.827 10.7363 106.713 11.7324C107.605 12.7285 108.051 14.0534 108.051 15.707V15.834C108.051 16.8626 107.852 17.7871 107.455 18.6074C107.064 19.4212 106.501 20.056 105.766 20.5117C105.036 20.9674 104.197 21.1953 103.246 21.1953C101.814 21.1953 100.652 20.6973 99.7598 19.7012C98.8743 18.7051 98.4316 17.3867 98.4316 15.7461V15.6191ZM100.248 15.834C100.248 17.0059 100.518 17.9466 101.059 18.6562C101.605 19.3659 102.335 19.7207 103.246 19.7207C104.164 19.7207 104.893 19.3626 105.434 18.6465C105.974 17.9238 106.244 16.9147 106.244 15.6191C106.244 14.4603 105.967 13.5228 105.414 12.8066C104.867 12.084 104.138 11.7227 103.227 11.7227C102.335 11.7227 101.615 12.0775 101.068 12.7871C100.521 13.4967 100.248 14.5124 100.248 15.834ZM113.266 16.1074L112.133 17.2891V21H110.326V6H112.133V15.0723L113.1 13.9102L116.391 10.4336H118.588L114.477 14.8477L119.066 21H116.947L113.266 16.1074Z" fill="#1B1F2B"/>
</svg>
