<svg width="12" height="12" viewBox="0 0 12 12" fill="none" xmlns="http://www.w3.org/2000/svg">
<path d="M4.28158 6.26914C4.28158 5.2779 5.08496 4.47412 6.07624 4.47412C7.06752 4.47412 7.87133 5.2779 7.87133 6.26914C7.87133 7.26038 7.06752 8.06415 6.07624 8.06415C5.08496 8.06415 4.28158 7.26038 4.28158 6.26914ZM3.31118 6.26914C3.31118 7.79623 4.54909 9.03408 6.07624 9.03408C7.60339 9.03408 8.84129 7.79623 8.84129 6.26914C8.84129 4.74205 7.60339 3.50419 6.07624 3.50419C4.54909 3.50419 3.31118 4.74205 3.31118 6.26914ZM8.30455 3.39459C8.30455 3.75124 8.5938 4.04092 8.9509 4.04092C9.30757 4.04092 9.59726 3.75124 9.59726 3.39459C9.59726 3.03793 9.30801 2.74869 8.9509 2.74869C8.5938 2.74869 8.30455 3.03793 8.30455 3.39459ZM3.90056 10.6521C3.37556 10.6282 3.09022 10.5407 2.90058 10.4668C2.64917 10.3689 2.46997 10.2524 2.28119 10.064C2.09285 9.8757 1.97585 9.6965 1.87842 9.4451C1.80447 9.25547 1.71705 8.97014 1.69312 8.44517C1.66703 7.87756 1.66181 7.70706 1.66181 6.26914C1.66181 4.83121 1.66746 4.66115 1.69312 4.09311C1.71705 3.56813 1.80491 3.28324 1.87842 3.09317C1.97628 2.84177 2.09285 2.66258 2.28119 2.47381C2.46953 2.28548 2.64874 2.16848 2.90058 2.07105C3.09022 1.99711 3.37556 1.90969 3.90056 1.88576C4.46818 1.85967 4.63869 1.85445 6.07624 1.85445C7.51422 1.85445 7.68429 1.8601 8.25236 1.88576C8.77735 1.90969 9.06225 1.99755 9.25233 2.07105C9.50374 2.16848 9.68295 2.28548 9.87172 2.47381C10.0601 2.66214 10.1766 2.84177 10.2745 3.09317C10.3484 3.28281 10.4359 3.56813 10.4598 4.09311C10.4859 4.66115 10.4911 4.83121 10.4911 6.26914C10.4911 7.70663 10.4859 7.87713 10.4598 8.44517C10.4359 8.97014 10.348 9.25547 10.2745 9.4451C10.1766 9.6965 10.0601 9.8757 9.87172 10.064C9.68338 10.2524 9.50374 10.3689 9.25233 10.4668C9.06269 10.5407 8.77735 10.6282 8.25236 10.6521C7.68473 10.6782 7.51422 10.6834 6.07624 10.6834C4.63869 10.6834 4.46818 10.6782 3.90056 10.6521ZM3.85619 0.917142C3.28291 0.943239 2.89145 1.03414 2.54913 1.16724C2.19507 1.30468 1.89495 1.48909 1.59526 1.78834C1.296 2.08758 1.11158 2.38769 0.974132 2.74217C0.841033 3.08447 0.750126 3.47592 0.724028 4.04918C0.697496 4.62331 0.691406 4.80685 0.691406 6.26914C0.691406 7.73142 0.697496 7.91497 0.724028 8.4891C0.750126 9.06235 0.841033 9.4538 0.974132 9.7961C1.11158 10.1501 1.29557 10.4507 1.59526 10.7499C1.89451 11.0492 2.19464 11.2332 2.54913 11.371C2.89188 11.5041 3.28291 11.595 3.85619 11.6211C4.43078 11.6472 4.6139 11.6538 6.07624 11.6538C7.53902 11.6538 7.72214 11.6477 8.29629 11.6211C8.86957 11.595 9.26103 11.5041 9.60335 11.371C9.95741 11.2332 10.2575 11.0492 10.5572 10.7499C10.8565 10.4507 11.0405 10.1501 11.1783 9.7961C11.3114 9.4538 11.4028 9.06235 11.4284 8.4891C11.4545 7.91453 11.4606 7.73142 11.4606 6.26914C11.4606 4.80685 11.4545 4.62331 11.4284 4.04918C11.4024 3.47592 11.3114 3.08447 11.1783 2.74217C11.0405 2.38813 10.8565 2.08801 10.5572 1.78834C10.258 1.48909 9.95741 1.30468 9.60378 1.16724C9.26103 1.03414 8.86957 0.942804 8.29672 0.917142C7.72257 0.891046 7.53902 0.884521 6.07667 0.884521C4.6139 0.884521 4.43078 0.890611 3.85619 0.917142Z" fill="#A6A6A6"/>
</svg>
