<svg width="126" height="28" viewBox="0 0 126 28" fill="none" xmlns="http://www.w3.org/2000/svg">
<path d="M14.6672 15C14.6672 13.7114 15.7116 12.6665 17.0003 12.6665C18.2889 12.6665 19.3339 13.7114 19.3339 15C19.3339 16.2886 18.2889 17.3335 17.0003 17.3335C15.7116 17.3335 14.6672 16.2886 14.6672 15ZM13.4057 15C13.4057 16.9852 15.015 18.5944 17.0003 18.5944C18.9856 18.5944 20.5949 16.9852 20.5949 15C20.5949 13.0148 18.9856 11.4056 17.0003 11.4056C15.015 11.4056 13.4057 13.0148 13.4057 15ZM19.8971 11.2631C19.8971 11.7267 20.2731 12.1033 20.7373 12.1033C21.201 12.1033 21.5776 11.7267 21.5776 11.2631C21.5776 10.7994 21.2016 10.4234 20.7373 10.4234C20.2731 10.4234 19.8971 10.7994 19.8971 11.2631ZM14.1719 20.6978C13.4894 20.6667 13.1185 20.5531 12.8719 20.4569C12.5451 20.3297 12.3121 20.1782 12.0667 19.9334C11.8219 19.6885 11.6698 19.4556 11.5431 19.1288C11.447 18.8822 11.3333 18.5113 11.3022 17.8288C11.2683 17.091 11.2615 16.8693 11.2615 15C11.2615 13.1307 11.2689 12.9096 11.3022 12.1712C11.3333 11.4887 11.4476 11.1183 11.5431 10.8712C11.6703 10.5444 11.8219 10.3115 12.0667 10.0661C12.3116 9.82124 12.5445 9.66914 12.8719 9.54249C13.1185 9.44636 13.4894 9.33271 14.1719 9.30162C14.9098 9.26769 15.1315 9.2609 17.0003 9.2609C18.8697 9.2609 19.0908 9.26826 19.8292 9.30162C20.5117 9.33271 20.8821 9.44693 21.1292 9.54249C21.456 9.66914 21.689 9.82124 21.9344 10.0661C22.1792 10.3109 22.3308 10.5444 22.458 10.8712C22.5541 11.1178 22.6678 11.4887 22.6989 12.1712C22.7328 12.9096 22.7396 13.1307 22.7396 15C22.7396 16.8687 22.7328 17.0904 22.6989 17.8288C22.6678 18.5113 22.5536 18.8822 22.458 19.1288C22.3308 19.4556 22.1792 19.6885 21.9344 19.9334C21.6896 20.1782 21.456 20.3297 21.1292 20.4569C20.8827 20.5531 20.5117 20.6667 19.8292 20.6978C19.0913 20.7317 18.8697 20.7385 17.0003 20.7385C15.1315 20.7385 14.9098 20.7317 14.1719 20.6978ZM14.1142 8.04241C13.369 8.07633 12.8601 8.19451 12.415 8.36753C11.9548 8.5462 11.5646 8.78595 11.175 9.17496C10.786 9.56397 10.5462 9.95412 10.3675 10.4149C10.1945 10.8599 10.0763 11.3688 10.0424 12.1141C10.0079 12.8604 10 13.099 10 15C10 16.901 10.0079 17.1396 10.0424 17.8859C10.0763 18.6312 10.1945 19.1401 10.3675 19.5851C10.5462 20.0453 10.7854 20.436 11.175 20.825C11.564 21.2141 11.9542 21.4532 12.415 21.6325C12.8606 21.8055 13.369 21.9237 14.1142 21.9576C14.8612 21.9915 15.0992 22 17.0003 22C18.9019 22 19.1399 21.9921 19.8863 21.9576C20.6316 21.9237 21.1405 21.8055 21.5855 21.6325C22.0458 21.4532 22.436 21.2141 22.8256 20.825C23.2146 20.436 23.4538 20.0453 23.633 19.5851C23.8061 19.1401 23.9248 18.6312 23.9582 17.8859C23.9921 17.139 24 16.901 24 15C24 13.099 23.9921 12.8604 23.9582 12.1141C23.9242 11.3688 23.8061 10.8599 23.633 10.4149C23.4538 9.95468 23.2146 9.56454 22.8256 9.17496C22.4365 8.78595 22.0458 8.5462 21.5861 8.36753C21.1405 8.19451 20.6316 8.07577 19.8869 8.04241C19.1405 8.00848 18.9019 8 17.0008 8C15.0992 8 14.8612 8.00792 14.1142 8.04241Z" fill="#A6A6A6"/>
<path d="M39.3301 21H37.5234V10.4336H39.3301V21ZM37.377 7.63086C37.377 7.33789 37.4648 7.09049 37.6406 6.88867C37.8229 6.68685 38.0898 6.58594 38.4414 6.58594C38.793 6.58594 39.0599 6.68685 39.2422 6.88867C39.4245 7.09049 39.5156 7.33789 39.5156 7.63086C39.5156 7.92383 39.4245 8.16797 39.2422 8.36328C39.0599 8.55859 38.793 8.65625 38.4414 8.65625C38.0898 8.65625 37.8229 8.55859 37.6406 8.36328C37.4648 8.16797 37.377 7.92383 37.377 7.63086ZM43.9395 10.4336L43.998 11.7617C44.8053 10.7461 45.86 10.2383 47.1621 10.2383C49.3952 10.2383 50.5215 11.498 50.541 14.0176V21H48.7344V14.0078C48.7279 13.2461 48.5521 12.6829 48.207 12.3184C47.8685 11.9538 47.3379 11.7715 46.6152 11.7715C46.0293 11.7715 45.515 11.9277 45.0723 12.2402C44.6296 12.5527 44.2845 12.9629 44.0371 13.4707V21H42.2305V10.4336H43.9395ZM59.418 18.1973C59.418 17.709 59.2324 17.3314 58.8613 17.0645C58.4967 16.791 57.8555 16.5566 56.9375 16.3613C56.026 16.166 55.3001 15.9316 54.7598 15.6582C54.2259 15.3848 53.8288 15.0592 53.5684 14.6816C53.3145 14.304 53.1875 13.8548 53.1875 13.334C53.1875 12.4681 53.5521 11.7357 54.2812 11.1367C55.0169 10.5378 55.9544 10.2383 57.0938 10.2383C58.2917 10.2383 59.2617 10.5475 60.0039 11.166C60.7526 11.7845 61.127 12.5755 61.127 13.5391H59.3105C59.3105 13.0443 59.099 12.6178 58.6758 12.2598C58.2591 11.9017 57.7318 11.7227 57.0938 11.7227C56.4362 11.7227 55.9219 11.8659 55.5508 12.1523C55.1797 12.4388 54.9941 12.8132 54.9941 13.2754C54.9941 13.7116 55.1667 14.0404 55.5117 14.2617C55.8568 14.4831 56.4785 14.6947 57.377 14.8965C58.2819 15.0983 59.0143 15.3392 59.5742 15.6191C60.1341 15.8991 60.5475 16.2376 60.8145 16.6348C61.0879 17.0254 61.2246 17.5039 61.2246 18.0703C61.2246 19.0143 60.847 19.7728 60.0918 20.3457C59.3366 20.9121 58.3568 21.1953 57.1523 21.1953C56.306 21.1953 55.5573 21.0456 54.9062 20.7461C54.2552 20.4466 53.7441 20.0299 53.373 19.4961C53.0085 18.9557 52.8262 18.373 52.8262 17.748H54.6328C54.6654 18.3535 54.9062 18.8353 55.3555 19.1934C55.8112 19.5449 56.4102 19.7207 57.1523 19.7207C57.8359 19.7207 58.3828 19.584 58.793 19.3105C59.2096 19.0306 59.418 18.6595 59.418 18.1973ZM66.0293 7.875V10.4336H68.002V11.8301H66.0293V18.3828C66.0293 18.806 66.1172 19.125 66.293 19.3398C66.4688 19.5482 66.7682 19.6523 67.1914 19.6523C67.3997 19.6523 67.6862 19.6133 68.0508 19.5352V21C67.5755 21.1302 67.1133 21.1953 66.6641 21.1953C65.8568 21.1953 65.248 20.9512 64.8379 20.4629C64.4277 19.9746 64.2227 19.2812 64.2227 18.3828V11.8301H62.2988V10.4336H64.2227V7.875H66.0293ZM76.6445 21C76.5404 20.7917 76.4557 20.4206 76.3906 19.8867C75.5508 20.7591 74.5482 21.1953 73.3828 21.1953C72.3411 21.1953 71.485 20.9023 70.8145 20.3164C70.1504 19.724 69.8184 18.9753 69.8184 18.0703C69.8184 16.9701 70.235 16.1172 71.0684 15.5117C71.9082 14.8997 73.0866 14.5938 74.6035 14.5938H76.3613V13.7637C76.3613 13.1322 76.1725 12.6309 75.7949 12.2598C75.4173 11.8822 74.8607 11.6934 74.125 11.6934C73.4805 11.6934 72.9401 11.8561 72.5039 12.1816C72.0677 12.5072 71.8496 12.901 71.8496 13.3633H70.0332C70.0332 12.8359 70.2188 12.3281 70.5898 11.8398C70.9674 11.3451 71.4753 10.9544 72.1133 10.668C72.7578 10.3815 73.4642 10.2383 74.2324 10.2383C75.4499 10.2383 76.4036 10.5443 77.0938 11.1562C77.7839 11.7617 78.1419 12.5983 78.168 13.666V18.5293C78.168 19.4993 78.2917 20.2708 78.5391 20.8438V21H76.6445ZM73.6465 19.623C74.2129 19.623 74.75 19.4766 75.2578 19.1836C75.7656 18.8906 76.1335 18.5098 76.3613 18.041V15.873H74.9453C72.7318 15.873 71.625 16.5208 71.625 17.8164C71.625 18.3828 71.8138 18.8255 72.1914 19.1445C72.569 19.4635 73.054 19.623 73.6465 19.623ZM80.5703 15.6289C80.5703 13.9818 80.9512 12.6732 81.7129 11.7031C82.4746 10.7266 83.4837 10.2383 84.7402 10.2383C86.0293 10.2383 87.0352 10.694 87.7578 11.6055L87.8457 10.4336H89.4961V20.7461C89.4961 22.1133 89.0892 23.1908 88.2754 23.9785C87.4681 24.7663 86.3809 25.1602 85.0137 25.1602C84.252 25.1602 83.5065 24.9974 82.7773 24.6719C82.0482 24.3464 81.4915 23.9004 81.1074 23.334L82.0449 22.25C82.8197 23.207 83.7669 23.6855 84.8867 23.6855C85.7656 23.6855 86.4492 23.4382 86.9375 22.9434C87.4323 22.4486 87.6797 21.752 87.6797 20.8535V19.9453C86.957 20.7786 85.9707 21.1953 84.7207 21.1953C83.4837 21.1953 82.4811 20.6973 81.7129 19.7012C80.9512 18.7051 80.5703 17.3477 80.5703 15.6289ZM82.3867 15.834C82.3867 17.0254 82.6309 17.9629 83.1191 18.6465C83.6074 19.3236 84.291 19.6621 85.1699 19.6621C86.3092 19.6621 87.1458 19.1445 87.6797 18.1094V13.2852C87.1263 12.276 86.2962 11.7715 85.1895 11.7715C84.3105 11.7715 83.6237 12.1133 83.1289 12.7969C82.6341 13.4805 82.3867 14.4928 82.3867 15.834ZM97.3379 12.0547C97.0645 12.0091 96.7682 11.9863 96.4492 11.9863C95.2643 11.9863 94.4603 12.4909 94.0371 13.5V21H92.2305V10.4336H93.9883L94.0176 11.6543C94.61 10.7103 95.4499 10.2383 96.5371 10.2383C96.8887 10.2383 97.1556 10.2839 97.3379 10.375V12.0547ZM105.141 21C105.036 20.7917 104.952 20.4206 104.887 19.8867C104.047 20.7591 103.044 21.1953 101.879 21.1953C100.837 21.1953 99.9811 20.9023 99.3105 20.3164C98.6465 19.724 98.3145 18.9753 98.3145 18.0703C98.3145 16.9701 98.7311 16.1172 99.5645 15.5117C100.404 14.8997 101.583 14.5938 103.1 14.5938H104.857V13.7637C104.857 13.1322 104.669 12.6309 104.291 12.2598C103.913 11.8822 103.357 11.6934 102.621 11.6934C101.977 11.6934 101.436 11.8561 101 12.1816C100.564 12.5072 100.346 12.901 100.346 13.3633H98.5293C98.5293 12.8359 98.7148 12.3281 99.0859 11.8398C99.4635 11.3451 99.9714 10.9544 100.609 10.668C101.254 10.3815 101.96 10.2383 102.729 10.2383C103.946 10.2383 104.9 10.5443 105.59 11.1562C106.28 11.7617 106.638 12.5983 106.664 13.666V18.5293C106.664 19.4993 106.788 20.2708 107.035 20.8438V21H105.141ZM102.143 19.623C102.709 19.623 103.246 19.4766 103.754 19.1836C104.262 18.8906 104.63 18.5098 104.857 18.041V15.873H103.441C101.228 15.873 100.121 16.5208 100.121 17.8164C100.121 18.3828 100.31 18.8255 100.688 19.1445C101.065 19.4635 101.55 19.623 102.143 19.623ZM111.195 10.4336L111.244 11.6055C112.019 10.694 113.064 10.2383 114.379 10.2383C115.857 10.2383 116.863 10.8047 117.396 11.9375C117.748 11.4297 118.204 11.0195 118.764 10.707C119.33 10.3945 119.997 10.2383 120.766 10.2383C123.083 10.2383 124.262 11.4655 124.301 13.9199V21H122.494V14.0273C122.494 13.2721 122.322 12.709 121.977 12.3379C121.632 11.9603 121.052 11.7715 120.238 11.7715C119.568 11.7715 119.011 11.9733 118.568 12.377C118.126 12.7741 117.868 13.3112 117.797 13.9883V21H115.98V14.0762C115.98 12.5397 115.229 11.7715 113.725 11.7715C112.54 11.7715 111.729 12.276 111.293 13.2852V21H109.486V10.4336H111.195Z" fill="#1B1F2B"/>
</svg>
