<svg width="123" height="28" viewBox="0 0 123 28" fill="none" xmlns="http://www.w3.org/2000/svg">
<path fill-rule="evenodd" clip-rule="evenodd" d="M23.5395 10.8053C23.6802 10.3316 23.5395 10 22.883 10H20.6946C20.1318 10 19.8817 10.3 19.741 10.6316C19.741 10.6316 18.6312 13.3789 17.0524 15.1474C16.5366 15.6684 16.3177 15.8263 16.0363 15.8263C15.8957 15.8263 15.6924 15.6684 15.6924 15.1947V10.8053C15.6924 10.2368 15.5361 10 15.0672 10H11.6282C11.2843 10 11.0655 10.2684 11.0655 10.5053C11.0655 11.0421 11.8471 11.1684 11.9409 12.6526V15.9053C11.9409 16.6158 11.8158 16.7421 11.5344 16.7421C10.7998 16.7421 8.98648 13.9947 7.92353 10.8368C7.70469 10.2526 7.50148 10 6.93874 10H4.75032C4.12505 10 4 10.3 4 10.6316C4 11.2158 4.73469 14.1211 7.45459 17.9579C9.26785 20.5789 11.8158 22 14.1293 22C15.5205 22 15.6924 21.6842 15.6924 21.1474V19.1579C15.6924 18.5263 15.8175 18.4 16.2708 18.4C16.5991 18.4 17.1462 18.5579 18.4436 19.8211C19.9286 21.3211 20.1787 22 21.0072 22H23.1956C23.8209 22 24.1335 21.6842 23.9459 21.0684C23.7427 20.4526 23.0393 19.5526 22.1014 18.4789C21.5856 17.8632 20.8196 17.2158 20.6008 16.8842C20.2725 16.4579 20.3663 16.2684 20.6008 15.9053C20.6008 15.8895 23.2738 12.1 23.5395 10.8053Z" fill="#A6A6A6"/>
<path d="M40.8535 18.5488L43.4707 10.4336H45.3164L41.5273 21H40.1504L36.3223 10.4336H38.168L40.8535 18.5488ZM50.0039 16.1074L48.8711 17.2891V21H47.0645V6H48.8711V15.0723L49.8379 13.9102L53.1289 10.4336H55.3262L51.2148 14.8477L55.8047 21H53.6855L50.0039 16.1074ZM56.7129 15.6191C56.7129 14.584 56.9147 13.653 57.3184 12.8262C57.7285 11.9993 58.2949 11.3613 59.0176 10.9121C59.7467 10.4629 60.5768 10.2383 61.5078 10.2383C62.9466 10.2383 64.1087 10.7363 64.9941 11.7324C65.8861 12.7285 66.332 14.0534 66.332 15.707V15.834C66.332 16.8626 66.1335 17.7871 65.7363 18.6074C65.3457 19.4212 64.7826 20.056 64.0469 20.5117C63.3177 20.9674 62.4779 21.1953 61.5273 21.1953C60.0951 21.1953 58.9329 20.6973 58.041 19.7012C57.1556 18.7051 56.7129 17.3867 56.7129 15.7461V15.6191ZM58.5293 15.834C58.5293 17.0059 58.7995 17.9466 59.3398 18.6562C59.8867 19.3659 60.6159 19.7207 61.5273 19.7207C62.4453 19.7207 63.1745 19.3626 63.7148 18.6465C64.2552 17.9238 64.5254 16.9147 64.5254 15.6191C64.5254 14.4603 64.2487 13.5228 63.6953 12.8066C63.1484 12.084 62.4193 11.7227 61.5078 11.7227C60.6159 11.7227 59.8965 12.0775 59.3496 12.7871C58.8027 13.4967 58.5293 14.5124 58.5293 15.834ZM70.3066 10.4336L70.3652 11.7617C71.1725 10.7461 72.2272 10.2383 73.5293 10.2383C75.7624 10.2383 76.8887 11.498 76.9082 14.0176V21H75.1016V14.0078C75.0951 13.2461 74.9193 12.6829 74.5742 12.3184C74.2357 11.9538 73.7051 11.7715 72.9824 11.7715C72.3965 11.7715 71.8822 11.9277 71.4395 12.2402C70.9967 12.5527 70.6517 12.9629 70.4043 13.4707V21H68.5977V10.4336H70.3066ZM82.084 7.875V10.4336H84.0566V11.8301H82.084V18.3828C82.084 18.806 82.1719 19.125 82.3477 19.3398C82.5234 19.5482 82.8229 19.6523 83.2461 19.6523C83.4544 19.6523 83.7409 19.6133 84.1055 19.5352V21C83.6302 21.1302 83.168 21.1953 82.7188 21.1953C81.9115 21.1953 81.3027 20.9512 80.8926 20.4629C80.4824 19.9746 80.2773 19.2812 80.2773 18.3828V11.8301H78.3535V10.4336H80.2773V7.875H82.084ZM92.6992 21C92.5951 20.7917 92.5104 20.4206 92.4453 19.8867C91.6055 20.7591 90.6029 21.1953 89.4375 21.1953C88.3958 21.1953 87.5397 20.9023 86.8691 20.3164C86.2051 19.724 85.873 18.9753 85.873 18.0703C85.873 16.9701 86.2897 16.1172 87.123 15.5117C87.9629 14.8997 89.1413 14.5938 90.6582 14.5938H92.416V13.7637C92.416 13.1322 92.2272 12.6309 91.8496 12.2598C91.472 11.8822 90.9154 11.6934 90.1797 11.6934C89.5352 11.6934 88.9948 11.8561 88.5586 12.1816C88.1224 12.5072 87.9043 12.901 87.9043 13.3633H86.0879C86.0879 12.8359 86.2734 12.3281 86.6445 11.8398C87.0221 11.3451 87.5299 10.9544 88.168 10.668C88.8125 10.3815 89.5189 10.2383 90.2871 10.2383C91.5046 10.2383 92.4583 10.5443 93.1484 11.1562C93.8385 11.7617 94.1966 12.5983 94.2227 13.666V18.5293C94.2227 19.4993 94.3464 20.2708 94.5938 20.8438V21H92.6992ZM89.7012 19.623C90.2676 19.623 90.8047 19.4766 91.3125 19.1836C91.8203 18.8906 92.1882 18.5098 92.416 18.041V15.873H91C88.7865 15.873 87.6797 16.5208 87.6797 17.8164C87.6797 18.3828 87.8685 18.8255 88.2461 19.1445C88.6237 19.4635 89.1087 19.623 89.7012 19.623ZM100.004 16.1074L98.8711 17.2891V21H97.0645V6H98.8711V15.0723L99.8379 13.9102L103.129 10.4336H105.326L101.215 14.8477L105.805 21H103.686L100.004 16.1074ZM109.643 7.875V10.4336H111.615V11.8301H109.643V18.3828C109.643 18.806 109.73 19.125 109.906 19.3398C110.082 19.5482 110.382 19.6523 110.805 19.6523C111.013 19.6523 111.299 19.6133 111.664 19.5352V21C111.189 21.1302 110.727 21.1953 110.277 21.1953C109.47 21.1953 108.861 20.9512 108.451 20.4629C108.041 19.9746 107.836 19.2812 107.836 18.3828V11.8301H105.912V10.4336H107.836V7.875H109.643ZM118.119 21.1953C116.687 21.1953 115.521 20.7266 114.623 19.7891C113.725 18.8451 113.275 17.5853 113.275 16.0098V15.6777C113.275 14.6296 113.474 13.6953 113.871 12.875C114.275 12.0482 114.835 11.4036 115.551 10.9414C116.273 10.4727 117.055 10.2383 117.895 10.2383C119.268 10.2383 120.336 10.6908 121.098 11.5957C121.859 12.5007 122.24 13.7962 122.24 15.4824V16.2344H115.082C115.108 17.276 115.411 18.1191 115.99 18.7637C116.576 19.4017 117.318 19.7207 118.217 19.7207C118.855 19.7207 119.395 19.5905 119.838 19.3301C120.281 19.0697 120.668 18.7246 121 18.2949L122.104 19.1543C121.218 20.515 119.89 21.1953 118.119 21.1953ZM117.895 11.7227C117.165 11.7227 116.553 11.9896 116.059 12.5234C115.564 13.0508 115.258 13.793 115.141 14.75H120.434V14.6133C120.382 13.6953 120.134 12.9857 119.691 12.4844C119.249 11.9766 118.65 11.7227 117.895 11.7227Z" fill="#1B1F2B"/>
</svg>
