<svg width="16" height="10" viewBox="0 0 16 10" fill="none" xmlns="http://www.w3.org/2000/svg">
<path fill-rule="evenodd" clip-rule="evenodd" d="M15.1066 0.811816C15.2148 0.447443 15.1066 0.192383 14.6015 0.192383H12.9181C12.4853 0.192383 12.2929 0.423152 12.1847 0.678213C12.1847 0.678213 11.3309 2.79157 10.1165 4.1519C9.71967 4.55271 9.55133 4.67416 9.3349 4.67416C9.22668 4.67416 9.07036 4.55271 9.07036 4.18833V0.811816C9.07036 0.374569 8.95012 0.192383 8.58939 0.192383H5.94404C5.6795 0.192383 5.51116 0.39886 5.51116 0.581046C5.51116 0.994002 6.11238 1.09117 6.18452 2.23287V4.73489C6.18452 5.28145 6.08833 5.37862 5.87189 5.37862C5.30675 5.37862 3.91193 3.26526 3.09427 0.836108C2.92593 0.386715 2.76962 0.192383 2.33674 0.192383H0.653339C0.172366 0.192383 0.0761719 0.423152 0.0761719 0.678213C0.0761719 1.12761 0.641315 3.36242 2.73355 6.31384C4.12837 8.33003 6.08833 9.42315 7.86793 9.42315C8.93809 9.42315 9.07036 9.18024 9.07036 8.76728V7.23692C9.07036 6.75109 9.16655 6.65392 9.51526 6.65392C9.76777 6.65392 10.1886 6.77538 11.1866 7.74704C12.329 8.90088 12.5213 9.42315 13.1586 9.42315H14.842C15.323 9.42315 15.5635 9.18024 15.4192 8.70655C15.2629 8.23287 14.7218 7.54056 14.0003 6.71465C13.6035 6.24096 13.0143 5.74299 12.846 5.48793C12.5935 5.15999 12.6656 5.01425 12.846 4.73489C12.846 4.72275 14.9022 1.80777 15.1066 0.811816Z" fill="#A6A6A6"/>
</svg>
